<svg width="19" height="19" viewBox="0 0 19 19" fill="none" xmlns="http://www.w3.org/2000/svg">
<path d="M9.50001 0.0949707C9.79818 0.0949707 10.0841 0.21342 10.295 0.424262C10.5058 0.635103 10.6243 0.921065 10.6243 1.21924V7.96485H17.3699C17.6681 7.96485 17.954 8.0833 18.1649 8.29414C18.3757 8.50498 18.4942 8.79094 18.4942 9.08912C18.4942 9.38729 18.3757 9.67326 18.1649 9.8841C17.954 10.0949 17.6681 10.2134 17.3699 10.2134H10.6243V16.959C10.6243 17.2572 10.5058 17.5431 10.295 17.754C10.0841 17.9648 9.79818 18.0833 9.50001 18.0833C9.20183 18.0833 8.91587 17.9648 8.70503 17.754C8.49419 17.5431 8.37574 17.2572 8.37574 16.959V10.2134H1.63013C1.33195 10.2134 1.04599 10.0949 0.83515 9.8841C0.624309 9.67326 0.505859 9.38729 0.505859 9.08912C0.505859 8.79094 0.624309 8.50498 0.83515 8.29414C1.04599 8.0833 1.33195 7.96485 1.63013 7.96485H8.37574V1.21924C8.37574 0.921065 8.49419 0.635103 8.70503 0.424262C8.91587 0.21342 9.20183 0.0949707 9.50001 0.0949707Z" fill="#37B9C5"/>
</svg>
