<svg width="138" height="133" viewBox="0 0 138 133" fill="none" xmlns="http://www.w3.org/2000/svg">
<circle cx="60.5" cy="60.5" r="60.5" fill="#EFEFEF"/>
<g filter="url(#filter0_d_1759_2233)">
<circle cx="109.5" cy="104.5" r="16.5" fill="white"/>
</g>
<path d="M103.7 98.7H114.75V104.65H116.45V98.7C116.45 97.7624 115.688 97 114.75 97H103.7C102.762 97 102 97.7624 102 98.7V108.9C102 109.838 102.762 110.6 103.7 110.6H110.5V108.9H103.7V98.7Z" fill="#37B9C5"/>
<path d="M107.1 103.8L104.55 107.2H113.9L110.5 102.1L107.95 105.5L107.1 103.8Z" fill="#37B9C5"/>
<path d="M116.45 106.35H114.75V108.9H112.2V110.6H114.75V113.15H116.45V110.6H119V108.9H116.45V106.35Z" fill="#37B9C5"/>
<path d="M82.3858 46.5453L68.3244 32.6085C67.9324 32.2201 67.3966 32 66.8412 32H39.0909C37.9344 32 37 32.9257 37 34.0714V87.9286C37 89.0743 37.9344 90 39.0909 90H80.9091C82.0656 90 83 89.0743 83 87.9286V48.0083C83 47.458 82.7778 46.9337 82.3858 46.5453ZM52.6818 53.8795C54.1259 53.8795 55.2955 55.0382 55.2955 56.4688C55.2955 57.8993 54.1259 59.058 52.6818 59.058C51.2378 59.058 50.0682 57.8993 50.0682 56.4688C50.0682 55.0382 51.2378 53.8795 52.6818 53.8795ZM72.0227 72.9107H47.9773C47.5395 72.9107 47.2977 72.4123 47.5656 72.0757L54.0866 63.8417C54.1355 63.7798 54.198 63.7298 54.2693 63.6954C54.3407 63.6609 54.419 63.643 54.4983 63.643C54.5776 63.643 54.6559 63.6609 54.7272 63.6954C54.7986 63.7298 54.861 63.7798 54.9099 63.8417L57.5955 67.2337L62.679 60.8123C62.7279 60.7504 62.7903 60.7003 62.8617 60.6659C62.933 60.6315 63.0113 60.6136 63.0906 60.6136C63.17 60.6136 63.2483 60.6315 63.3196 60.6659C63.3909 60.7003 63.4534 60.7504 63.5023 60.8123L72.4213 72.0757C72.7023 72.4123 72.454 72.9107 72.0227 72.9107ZM65.8807 48.9598V36.7772L78.1778 48.9598H65.8807Z" fill="#BEBABA"/>
<defs>
<filter id="filter0_d_1759_2233" x="81" y="76" width="57" height="57" filterUnits="userSpaceOnUse" color-interpolation-filters="sRGB">
<feFlood flood-opacity="0" result="BackgroundImageFix"/>
<feColorMatrix in="SourceAlpha" type="matrix" values="0 0 0 0 0 0 0 0 0 0 0 0 0 0 0 0 0 0 127 0" result="hardAlpha"/>
<feOffset/>
<feGaussianBlur stdDeviation="6"/>
<feComposite in2="hardAlpha" operator="out"/>
<feColorMatrix type="matrix" values="0 0 0 0 0 0 0 0 0 0 0 0 0 0 0 0 0 0 0.15 0"/>
<feBlend mode="normal" in2="BackgroundImageFix" result="effect1_dropShadow_1759_2233"/>
<feBlend mode="normal" in="SourceGraphic" in2="effect1_dropShadow_1759_2233" result="shape"/>
</filter>
</defs>
</svg>
