<svg width="33" height="25" viewBox="0 0 33 25" fill="none" xmlns="http://www.w3.org/2000/svg">
<path d="M16.3825 9.30085C16.3825 8.02759 15.8767 6.80647 14.9764 5.90614C14.076 5.0058 12.8549 4.5 11.5816 4.5C10.3084 4.5 9.08727 5.0058 8.18693 5.90614C7.2866 6.80647 6.7808 8.02759 6.7808 9.30085C6.7808 14.9018 4.38037 16.5021 4.38037 16.5021H18.7829C18.7829 16.5021 16.3825 14.9018 16.3825 9.30085Z" stroke="white" stroke-width="1.2" stroke-linecap="round" stroke-linejoin="round"/>
<path d="M12.9658 19.7026C12.8251 19.9451 12.6232 20.1464 12.3802 20.2864C12.1373 20.4263 11.8619 20.4999 11.5815 20.4999C11.3012 20.4999 11.0257 20.4263 10.7828 20.2864C10.5399 20.1464 10.3379 19.9451 10.1973 19.7026" stroke="white" stroke-width="1.2" stroke-linecap="round" stroke-linejoin="round"/>
<circle cx="17.3804" cy="4.5" r="3.5" fill="#FF0000" stroke="white"/>
</svg>
