<svg width="20" height="20" viewBox="0 0 20 20" fill="none" xmlns="http://www.w3.org/2000/svg">
<path d="M6.2085 10.8333C5.5835 10.8333 5.0335 10.4916 4.75016 9.97496L1.76683 4.56663C1.4585 4.01663 1.8585 3.33329 2.49183 3.33329H14.8252L15.6085 1.66663H18.3335V3.33329H16.6668L13.6668 9.65829L14.7918 11.6916C15.4002 12.8083 14.6002 14.1666 13.3335 14.1666H3.3335V12.5H13.3335L12.4168 10.8333H6.2085ZM14.0335 4.99996H3.9085L6.2085 9.16663H12.0585L14.0335 4.99996ZM13.3335 15C14.2502 15 14.9918 15.75 14.9918 16.6666C14.9918 17.5833 14.2502 18.3333 13.3335 18.3333C12.4168 18.3333 11.6668 17.5833 11.6668 16.6666C11.6668 15.75 12.4168 15 13.3335 15ZM5.00016 15C5.91683 15 6.6585 15.75 6.6585 16.6666C6.6585 17.5833 5.91683 18.3333 5.00016 18.3333C4.0835 18.3333 3.3335 17.5833 3.3335 16.6666C3.3335 15.75 4.0835 15 5.00016 15Z" fill="#FFFAF3"/>
</svg>
