<svg width="25" height="25" viewBox="0 0 25 25" fill="none" xmlns="http://www.w3.org/2000/svg">
<path d="M7.95 13.0125C7.2 13.0125 6.54 12.6025 6.2 11.9825L2.62 5.49251C2.25 4.83251 2.73 4.01251 3.49 4.01251H18.29L19.23 2.01251H22.5V4.01251H20.5L16.9 11.6025L18.25 14.0425C18.98 15.3825 18.02 17.0125 16.5 17.0125H4.5V15.0125H16.5L15.4 13.0125H7.95ZM17.34 6.01251H5.19L7.95 11.0125H14.97L17.34 6.01251ZM16.5 18.0125C17.6 18.0125 18.49 18.9125 18.49 20.0125C18.49 21.1125 17.6 22.0125 16.5 22.0125C15.4 22.0125 14.5 21.1125 14.5 20.0125C14.5 18.9125 15.4 18.0125 16.5 18.0125ZM6.5 18.0125C7.6 18.0125 8.49 18.9125 8.49 20.0125C8.49 21.1125 7.6 22.0125 6.5 22.0125C5.4 22.0125 4.5 21.1125 4.5 20.0125C4.5 18.9125 5.4 18.0125 6.5 18.0125Z" fill="#ADB3BC"/>
</svg>
