<svg width="5" height="17" viewBox="0 0 5 17" fill="none" xmlns="http://www.w3.org/2000/svg">
<path d="M2.57129 16.5781C2.04086 16.5781 1.53215 16.3674 1.15708 15.9923C0.782003 15.6173 0.571289 15.1086 0.571289 14.5781C0.571289 14.0477 0.782003 13.539 1.15708 13.1639C1.53215 12.7888 2.04086 12.5781 2.57129 12.5781C3.10172 12.5781 3.61043 12.7888 3.9855 13.1639C4.36057 13.539 4.57129 14.0477 4.57129 14.5781C4.57129 15.1086 4.36057 15.6173 3.9855 15.9923C3.61043 16.3674 3.10172 16.5781 2.57129 16.5781ZM2.57129 10.5781C2.04086 10.5781 1.53215 10.3674 1.15708 9.99234C0.782003 9.61727 0.571289 9.10856 0.571289 8.57812C0.571289 8.04769 0.782003 7.53898 1.15708 7.16391C1.53215 6.78884 2.04086 6.57812 2.57129 6.57812C3.10172 6.57812 3.61043 6.78884 3.9855 7.16391C4.36057 7.53898 4.57129 8.04769 4.57129 8.57812C4.57129 9.10856 4.36057 9.61727 3.9855 9.99234C3.61043 10.3674 3.10172 10.5781 2.57129 10.5781ZM2.57129 4.57812C2.04086 4.57812 1.53215 4.36741 1.15708 3.99234C0.782003 3.61727 0.571289 3.10856 0.571289 2.57812C0.571289 2.04769 0.782003 1.53898 1.15708 1.16391C1.53215 0.788839 2.04086 0.578125 2.57129 0.578125C3.10172 0.578125 3.61043 0.788839 3.9855 1.16391C4.36057 1.53898 4.57129 2.04769 4.57129 2.57812C4.57129 3.10856 4.36057 3.61727 3.9855 3.99234C3.61043 4.36741 3.10172 4.57812 2.57129 4.57812Z" fill="black"/>
</svg>
