<svg width="28" height="24" viewBox="0 0 28 24" fill="none" xmlns="http://www.w3.org/2000/svg">
<path d="M3.71347 16.5405C3.71347 16.928 3.86742 17.2996 4.14143 17.5736C4.41545 17.8477 4.7871 18.0016 5.17462 18.0016C5.56214 18.0016 5.93379 17.8477 6.20781 17.5736C6.48183 17.2996 6.63577 16.928 6.63577 16.5405C6.63577 16.1529 6.48183 15.7813 6.20781 15.5073C5.93379 15.2332 5.56214 15.0793 5.17462 15.0793C4.7871 15.0793 4.41545 15.2332 4.14143 15.5073C3.86742 15.7813 3.71347 16.1529 3.71347 16.5405ZM3.71347 20.6755C2.85792 20.3736 2.11707 19.8138 1.59304 19.0732C1.06901 18.3326 0.787598 17.4477 0.787598 16.5405C0.787598 15.6332 1.06901 14.7483 1.59304 14.0077C2.11707 13.2671 2.85792 12.7073 3.71347 12.4054L3.71347 1.92898C3.71347 1.54146 3.86742 1.16981 4.14143 0.895788C4.41545 0.621769 4.7871 0.467829 5.17462 0.467829C5.56214 0.467829 5.93379 0.621769 6.20781 0.895788C6.48183 1.16981 6.63577 1.54146 6.63577 1.92898L6.63577 12.4054C7.49132 12.7073 8.23217 13.2671 8.7562 14.0077C9.28023 14.7483 9.56165 15.6332 9.56165 16.5405C9.56165 17.4477 9.28023 18.3326 8.7562 19.0732C8.23217 19.8138 7.49132 20.3736 6.63577 20.6755V22.385C6.63577 22.7726 6.48183 23.1442 6.20781 23.4182C5.93379 23.6922 5.56214 23.8462 5.17462 23.8462C4.7871 23.8462 4.41545 23.6922 4.14143 23.4182C3.86742 23.1442 3.71347 22.7726 3.71347 22.385V20.6755ZM12.4804 7.77357C12.4804 8.16109 12.6343 8.53274 12.9083 8.80675C13.1823 9.08077 13.554 9.23471 13.9415 9.23471C14.329 9.23471 14.7007 9.08077 14.9747 8.80675C15.2487 8.53274 15.4027 8.16109 15.4027 7.77357C15.4027 7.38605 15.2487 7.0144 14.9747 6.74038C14.7007 6.46636 14.329 6.31242 13.9415 6.31242C13.554 6.31242 13.1823 6.46636 12.9083 6.74038C12.6343 7.0144 12.4804 7.38605 12.4804 7.77357ZM12.4804 11.9086C11.6248 11.6067 10.884 11.0469 10.3599 10.3063C9.83589 9.56572 9.55448 8.68081 9.55448 7.77357C9.55448 6.86632 9.83589 5.98141 10.3599 5.24081C10.884 4.50022 11.6248 3.9404 12.4804 3.63852V1.92898C12.4804 1.54146 12.6343 1.16981 12.9083 0.895788C13.1823 0.621769 13.554 0.467829 13.9415 0.467829C14.329 0.467829 14.7007 0.621769 14.9747 0.895788C15.2487 1.16981 15.4027 1.54146 15.4027 1.92898V3.63852C16.2582 3.9404 16.9991 4.50022 17.5231 5.24081C18.0471 5.98141 18.3285 6.86632 18.3285 7.77357C18.3285 8.68081 18.0471 9.56572 17.5231 10.3063C16.9991 11.0469 16.2582 11.6067 15.4027 11.9086V22.385C15.4027 22.7726 15.2487 23.1442 14.9747 23.4182C14.7007 23.6922 14.329 23.8462 13.9415 23.8462C13.554 23.8462 13.1823 23.6922 12.9083 23.4182C12.6343 23.1442 12.4804 22.7726 12.4804 22.385V11.9086ZM21.2472 16.5405C21.2472 16.928 21.4012 17.2996 21.6752 17.5736C21.9492 17.8477 22.3209 18.0016 22.7084 18.0016C23.0959 18.0016 23.4676 17.8477 23.7416 17.5736C24.0156 17.2996 24.1695 16.928 24.1695 16.5405C24.1695 16.1529 24.0156 15.7813 23.7416 15.5073C23.4676 15.2332 23.0959 15.0793 22.7084 15.0793C22.3209 15.0793 21.9492 15.2332 21.6752 15.5073C21.4012 15.7813 21.2472 16.1529 21.2472 16.5405ZM21.2472 20.6755C20.3917 20.3736 19.6508 19.8138 19.1268 19.0732C18.6028 18.3326 18.3214 17.4477 18.3214 16.5405C18.3214 15.6332 18.6028 14.7483 19.1268 14.0077C19.6508 13.2671 20.3917 12.7073 21.2472 12.4054V1.92898C21.2472 1.54146 21.4012 1.16981 21.6752 0.895788C21.9492 0.621769 22.3209 0.467829 22.7084 0.467829C23.0959 0.467829 23.4676 0.621769 23.7416 0.895788C24.0156 1.16981 24.1695 1.54146 24.1695 1.92898V12.4054C25.0251 12.7073 25.7659 13.2671 26.29 14.0077C26.814 14.7483 27.0954 15.6332 27.0954 16.5405C27.0954 17.4477 26.814 18.3326 26.29 19.0732C25.7659 19.8138 25.0251 20.3736 24.1695 20.6755V22.385C24.1695 22.7726 24.0156 23.1442 23.7416 23.4182C23.4676 23.6922 23.0959 23.8462 22.7084 23.8462C22.3209 23.8462 21.9492 23.6922 21.6752 23.4182C21.4012 23.1442 21.2472 22.7726 21.2472 22.385V20.6755Z" fill="#37B9C5"/>
</svg>
