<svg width="27" height="37" viewBox="0 0 27 37" fill="none" xmlns="http://www.w3.org/2000/svg">
<path fill-rule="evenodd" clip-rule="evenodd" d="M1 13.4254C1 6.55591 6.58929 1 13.5 1C20.4107 1 26 6.55591 26 13.4254C26 20.8273 18.1071 31.0339 14.875 34.9212C14.1607 35.7733 12.8571 35.7733 12.1429 34.9212C8.89286 31.0339 1 20.8273 1 13.4254ZM9.03528 13.4254C9.03528 15.875 11.0353 17.863 13.4996 17.863C15.9639 17.863 17.9639 15.875 17.9639 13.4254C17.9639 10.9758 15.9639 8.98776 13.4996 8.98776C11.0353 8.98776 9.03528 10.9758 9.03528 13.4254Z" fill="#37B9C5"/>
<path d="M14.875 34.9212L15.2582 35.2425L15.2595 35.2409L14.875 34.9212ZM12.1429 34.9212L11.7593 35.242L11.7597 35.2425L12.1429 34.9212ZM13.5 0.5C6.31597 0.5 0.5 6.27695 0.5 13.4254H1.5C1.5 6.83487 6.8626 1.5 13.5 1.5V0.5ZM26.5 13.4254C26.5 6.27695 20.684 0.5 13.5 0.5V1.5C20.1374 1.5 25.5 6.83487 25.5 13.4254H26.5ZM15.2595 35.2409C16.883 33.2883 19.6823 29.7426 22.0783 25.7485C24.4619 21.7751 26.5 17.272 26.5 13.4254H25.5C25.5 16.9807 23.5917 21.2819 21.2208 25.2341C18.8623 29.1656 16.0992 32.6668 14.4905 34.6016L15.2595 35.2409ZM11.7597 35.2425C12.6738 36.3329 14.344 36.3329 15.2582 35.2425L14.4918 34.6C13.9774 35.2137 13.0405 35.2137 12.526 34.6L11.7597 35.2425ZM0.5 13.4254C0.5 17.272 2.53811 21.7751 4.92402 25.7487C7.32233 29.7429 10.1263 33.2887 11.7593 35.242L12.5265 34.6005C10.9095 32.6664 8.14196 29.1653 5.78134 25.2339C3.40832 21.2818 1.5 16.9807 1.5 13.4254H0.5ZM13.4996 17.363C11.3086 17.363 9.53528 15.596 9.53528 13.4254H8.53528C8.53528 16.1539 10.762 18.363 13.4996 18.363V17.363ZM17.4639 13.4254C17.4639 15.596 15.6905 17.363 13.4996 17.363V18.363C16.2372 18.363 18.4639 16.1539 18.4639 13.4254H17.4639ZM13.4996 9.48776C15.6905 9.48776 17.4639 11.2548 17.4639 13.4254H18.4639C18.4639 10.6969 16.2372 8.48776 13.4996 8.48776V9.48776ZM9.53528 13.4254C9.53528 11.2548 11.3086 9.48776 13.4996 9.48776V8.48776C10.762 8.48776 8.53528 10.6969 8.53528 13.4254H9.53528Z" fill="white"/>
</svg>
