<svg width="18" height="20" viewBox="0 0 18 20" fill="none" xmlns="http://www.w3.org/2000/svg">
<path d="M8.64307 0.872559C3.95617 0.872559 0.143066 4.28416 0.143066 8.47712C0.143066 11.2414 1.75637 13.7205 4.39307 15.0684V19.884L8.93207 16.0769C13.4855 15.941 17.1431 12.5836 17.1431 8.47712C17.1431 4.28416 13.33 0.872559 8.64307 0.872559ZM8.64307 14.1805H8.36002L6.09307 16.0817V13.7842L5.54822 13.5494C3.26257 12.5655 1.84307 10.6216 1.84307 8.47712C1.84307 5.33169 4.89372 2.7737 8.64307 2.7737C12.3924 2.7737 15.4431 5.33169 15.4431 8.47712C15.4431 11.6226 12.3924 14.1805 8.64307 14.1805Z" fill="white"/>
</svg>
