<svg width="19" height="24" viewBox="0 0 19 24" fill="none" xmlns="http://www.w3.org/2000/svg">
<path d="M1.89307 22.2823C1.89307 22.6965 1.55728 23.0323 1.14307 23.0323C0.728853 23.0323 0.393066 22.6965 0.393066 22.2823H1.89307ZM18.8931 22.2823C18.8931 22.6965 18.5573 23.0323 18.1431 23.0323C17.7289 23.0323 17.3931 22.6965 17.3931 22.2823H18.8931ZM9.64307 13.2923C6.28189 13.2923 3.58057 10.5208 3.58057 7.13111H5.08057C5.08057 9.71846 7.13622 11.7923 9.64307 11.7923V13.2923ZM3.58057 7.13111C3.58057 3.74148 6.28189 0.969971 9.64307 0.969971V2.46997C7.13622 2.46997 5.08057 4.54377 5.08057 7.13111H3.58057ZM9.64307 0.969971C13.0042 0.969971 15.7056 3.74148 15.7056 7.13111H14.2056C14.2056 4.54377 12.1499 2.46997 9.64307 2.46997V0.969971ZM15.7056 7.13111C15.7056 10.5208 13.0042 13.2923 9.64307 13.2923V11.7923C12.1499 11.7923 14.2056 9.71846 14.2056 7.13111H15.7056ZM0.393066 22.2823C0.393066 17.0996 4.52148 12.8745 9.64307 12.8745V14.3745C5.37581 14.3745 1.89307 17.9019 1.89307 22.2823H0.393066ZM9.64307 12.8745C14.7646 12.8745 18.8931 17.0996 18.8931 22.2823H17.3931C17.3931 17.9019 13.9103 14.3745 9.64307 14.3745V12.8745Z" fill="white"/>
</svg>
