<svg width="25" height="25" viewBox="0 0 25 25" fill="none" xmlns="http://www.w3.org/2000/svg">
<path d="M6.44995 20.0125C6.44995 20.4267 6.11416 20.7625 5.69995 20.7625C5.28574 20.7625 4.94995 20.4267 4.94995 20.0125H6.44995ZM19.45 20.0125C19.45 20.4267 19.1142 20.7625 18.7 20.7625C18.2857 20.7625 17.95 20.4267 17.95 20.0125H19.45ZM12.2 13.1836C9.51701 13.1836 7.38745 10.9371 7.38745 8.22304H8.88745C8.88745 10.1598 10.3956 11.6836 12.2 11.6836V13.1836ZM7.38745 8.22304C7.38745 5.50894 9.51701 3.26251 12.2 3.26251V4.76251C10.3956 4.76251 8.88745 6.28632 8.88745 8.22304H7.38745ZM12.2 3.26251C14.8829 3.26251 17.0125 5.50894 17.0125 8.22304H15.5125C15.5125 6.28632 14.0043 4.76251 12.2 4.76251V3.26251ZM17.0125 8.22304C17.0125 10.9371 14.8829 13.1836 12.2 13.1836V11.6836C14.0043 11.6836 15.5125 10.1598 15.5125 8.22304H17.0125ZM4.94995 20.0125C4.94995 15.9032 8.17081 12.5257 12.2 12.5257V14.0257C9.04939 14.0257 6.44995 16.6805 6.44995 20.0125H4.94995ZM12.2 12.5257C16.2291 12.5257 19.45 15.9032 19.45 20.0125H17.95C17.95 16.6805 15.3505 14.0257 12.2 14.0257V12.5257Z" fill="#ADB3BC"/>
</svg>
