<svg width="178" height="23" viewBox="0 0 178 23" fill="none" xmlns="http://www.w3.org/2000/svg">
<path d="M159.278 19V16.886H154.728V16.018L159.474 9.13H160.44V15.906H161.91V16.886H160.44V19H159.278ZM159.278 15.906V11.02L155.918 15.906H159.278ZM163.697 19V17.572H165.125V19H163.697ZM170.83 19.126C170.195 19.126 169.589 19.0233 169.01 18.818C168.431 18.6127 167.941 18.3233 167.54 17.95L167.974 17.04C168.842 17.7493 169.789 18.104 170.816 18.104C171.497 18.104 172.034 17.9127 172.426 17.53C172.818 17.1473 173.014 16.6433 173.014 16.018C173.014 15.374 172.827 14.8467 172.454 14.436C172.081 14.0253 171.567 13.82 170.914 13.82C169.971 13.82 169.229 14.212 168.688 14.996H167.848V9.13H173.574V10.11H168.982V13.638C169.523 13.0967 170.237 12.826 171.124 12.826C171.74 12.826 172.277 12.9567 172.734 13.218C173.191 13.4793 173.541 13.848 173.784 14.324C174.036 14.7907 174.162 15.3367 174.162 15.962C174.162 16.578 174.027 17.124 173.756 17.6C173.485 18.076 173.098 18.4493 172.594 18.72C172.099 18.9907 171.511 19.126 170.83 19.126Z" fill="#ADB3BC"/>
<path d="M17.1718 13.7234C16.9236 13.9639 16.8096 14.3118 16.8661 14.653L17.7181 19.368C17.79 19.7676 17.6213 20.172 17.2868 20.403C16.9591 20.6425 16.5231 20.6713 16.1656 20.4796L11.9211 18.2659C11.7736 18.1873 11.6097 18.1451 11.442 18.1403H11.1823C11.0922 18.1537 11.004 18.1825 10.9235 18.2266L6.6781 20.4509C6.46822 20.5563 6.23056 20.5937 5.99768 20.5563C5.43035 20.449 5.05181 19.9085 5.14477 19.3382L5.99768 14.6232C6.05422 14.2792 5.94018 13.9294 5.69197 13.685L2.23143 10.3309C1.94202 10.0501 1.84139 9.62842 1.97364 9.24796C2.10206 8.86846 2.42981 8.5915 2.8256 8.52921L7.58852 7.83825C7.95077 7.80087 8.26893 7.58046 8.43185 7.25462L10.5306 2.95171C10.5804 2.85587 10.6446 2.76771 10.7223 2.69296L10.8085 2.62587C10.8536 2.57604 10.9053 2.53483 10.9628 2.50129L11.0673 2.46296L11.2302 2.39587H11.6336C11.994 2.43325 12.3112 2.64887 12.477 2.97087L14.6035 7.25462C14.7568 7.568 15.0549 7.78554 15.3989 7.83825L20.1618 8.52921C20.5643 8.58671 20.9007 8.86462 21.0339 9.24796C21.1595 9.63225 21.0512 10.0539 20.756 10.3309L17.1718 13.7234Z" fill="#FFC618"/>
<path d="M48.1718 13.7234C47.9236 13.9639 47.8096 14.3118 47.8661 14.653L48.7181 19.368C48.79 19.7676 48.6213 20.172 48.2868 20.403C47.9591 20.6425 47.5231 20.6713 47.1656 20.4796L42.9211 18.2659C42.7736 18.1873 42.6097 18.1451 42.442 18.1403H42.1823C42.0922 18.1537 42.004 18.1825 41.9235 18.2266L37.6781 20.4509C37.4682 20.5563 37.2306 20.5937 36.9977 20.5563C36.4303 20.449 36.0518 19.9085 36.1448 19.3382L36.9977 14.6232C37.0542 14.2792 36.9402 13.9294 36.692 13.685L33.2314 10.3309C32.942 10.0501 32.8414 9.62842 32.9736 9.24796C33.1021 8.86846 33.4298 8.5915 33.8256 8.52921L38.5885 7.83825C38.9508 7.80087 39.2689 7.58046 39.4318 7.25462L41.5306 2.95171C41.5804 2.85587 41.6446 2.76771 41.7223 2.69296L41.8085 2.62587C41.8536 2.57604 41.9053 2.53483 41.9628 2.50129L42.0673 2.46296L42.2302 2.39587H42.6336C42.994 2.43325 43.3112 2.64887 43.477 2.97087L45.6035 7.25462C45.7568 7.568 46.0549 7.78554 46.3989 7.83825L51.1618 8.52921C51.5643 8.58671 51.9007 8.86462 52.0339 9.24796C52.1595 9.63225 52.0512 10.0539 51.756 10.3309L48.1718 13.7234Z" fill="#FFC618"/>
<path d="M78.1718 13.7234C77.9236 13.9639 77.8096 14.3118 77.8661 14.653L78.7181 19.368C78.79 19.7676 78.6213 20.172 78.2868 20.403C77.9591 20.6425 77.5231 20.6713 77.1656 20.4796L72.9211 18.2659C72.7736 18.1873 72.6097 18.1451 72.442 18.1403H72.1823C72.0922 18.1537 72.004 18.1825 71.9235 18.2266L67.6781 20.4509C67.4682 20.5563 67.2306 20.5937 66.9977 20.5563C66.4303 20.449 66.0518 19.9085 66.1448 19.3382L66.9977 14.6232C67.0542 14.2792 66.9402 13.9294 66.692 13.685L63.2314 10.3309C62.942 10.0501 62.8414 9.62842 62.9736 9.24796C63.1021 8.86846 63.4298 8.5915 63.8256 8.52921L68.5885 7.83825C68.9508 7.80087 69.2689 7.58046 69.4318 7.25462L71.5306 2.95171C71.5804 2.85587 71.6446 2.76771 71.7223 2.69296L71.8085 2.62587C71.8536 2.57604 71.9053 2.53483 71.9628 2.50129L72.0673 2.46296L72.2302 2.39587H72.6336C72.994 2.43325 73.3112 2.64887 73.477 2.97087L75.6035 7.25462C75.7568 7.568 76.0549 7.78554 76.3989 7.83825L81.1618 8.52921C81.5643 8.58671 81.9007 8.86462 82.0339 9.24796C82.1595 9.63225 82.0512 10.0539 81.756 10.3309L78.1718 13.7234Z" fill="#FFC618"/>
<path d="M109.172 13.7234C108.924 13.9639 108.81 14.3118 108.866 14.653L109.718 19.368C109.79 19.7676 109.621 20.172 109.287 20.403C108.959 20.6425 108.523 20.6713 108.166 20.4796L103.921 18.2659C103.774 18.1873 103.61 18.1451 103.442 18.1403H103.182C103.092 18.1537 103.004 18.1825 102.924 18.2266L98.6781 20.4509C98.4682 20.5563 98.2306 20.5937 97.9977 20.5563C97.4303 20.449 97.0518 19.9085 97.1448 19.3382L97.9977 14.6232C98.0542 14.2792 97.9402 13.9294 97.692 13.685L94.2314 10.3309C93.942 10.0501 93.8414 9.62842 93.9736 9.24796C94.1021 8.86846 94.4298 8.5915 94.8256 8.52921L99.5885 7.83825C99.9508 7.80087 100.269 7.58046 100.432 7.25462L102.531 2.95171C102.58 2.85587 102.645 2.76771 102.722 2.69296L102.809 2.62587C102.854 2.57604 102.905 2.53483 102.963 2.50129L103.067 2.46296L103.23 2.39587H103.634C103.994 2.43325 104.311 2.64887 104.477 2.97087L106.604 7.25462C106.757 7.568 107.055 7.78554 107.399 7.83825L112.162 8.52921C112.564 8.58671 112.901 8.86462 113.034 9.24796C113.159 9.63225 113.051 10.0539 112.756 10.3309L109.172 13.7234Z" fill="#FFC618"/>
<path d="M135.436 2.98392L137.569 7.27177C137.727 7.58243 138.027 7.79816 138.373 7.8461L143.165 8.54412C143.445 8.58343 143.699 8.73109 143.871 8.95642C144.041 9.17886 144.113 9.46076 144.072 9.73785C144.039 9.96797 143.93 10.1808 143.764 10.3438L140.292 13.7102C140.038 13.9452 139.923 14.2932 139.984 14.6336L140.839 19.3663C140.93 19.9378 140.551 20.4766 139.984 20.585C139.75 20.6224 139.51 20.5831 139.3 20.4757L135.024 18.2483C134.707 18.0882 134.332 18.0882 134.015 18.2483L129.74 20.4757C129.215 20.7547 128.564 20.5649 128.272 20.0471C128.163 19.8409 128.125 19.606 128.16 19.3769L129.015 14.6432C129.077 14.3038 128.961 13.9538 128.708 13.7189L125.235 10.3544C124.822 9.95551 124.809 9.29871 125.207 8.88546C125.216 8.87683 125.225 8.86725 125.235 8.85766C125.4 8.68986 125.616 8.58343 125.85 8.55563L130.643 7.85665C130.988 7.80775 131.288 7.59393 131.446 7.28136L133.503 2.98392C133.686 2.61573 134.066 2.38658 134.478 2.39616H134.607C134.964 2.43931 135.276 2.6608 135.436 2.98392" fill="#D1D5DB"/>
<path d="M134.492 18.1289C134.307 18.1347 134.126 18.1846 133.963 18.2738L129.709 20.4961C129.189 20.7445 128.566 20.5517 128.274 20.0539C128.166 19.8506 128.126 19.6175 128.163 19.3892L129.013 14.6656C129.07 14.3222 128.955 13.9731 128.705 13.7314L125.231 10.3677C124.819 9.96396 124.811 9.30121 125.215 8.88783C125.22 8.88207 125.225 8.87727 125.231 8.87248C125.396 8.70943 125.608 8.60201 125.837 8.56844L130.633 7.86253C130.981 7.81841 131.282 7.60165 131.435 7.28705L133.52 2.93553C133.718 2.58449 134.098 2.3754 134.5 2.39746C134.492 2.68232 134.492 17.9352 134.492 18.1289" fill="#FFC618"/>
</svg>
