<svg width="19" height="22" viewBox="0 0 19 22" fill="none" xmlns="http://www.w3.org/2000/svg">
<path d="M1.14307 2.72698C1.14307 2.34905 1.28447 1.9866 1.53616 1.71937C1.78786 1.45213 2.12923 1.302 2.48518 1.302H13.2221C13.578 1.302 13.9194 1.45213 14.1711 1.71937C14.4228 1.9866 14.5642 2.34905 14.5642 2.72698V20.3017H2.48518C2.12923 20.3017 1.78786 20.1515 1.53616 19.8843C1.28447 19.6171 1.14307 19.2546 1.14307 18.8767V2.72698Z" stroke="white" stroke-width="1.5" stroke-linejoin="round"/>
<path d="M14.564 10.8023C14.564 10.5503 14.6582 10.3087 14.826 10.1305C14.9938 9.95238 15.2214 9.85229 15.4587 9.85229H17.2482C17.4855 9.85229 17.7131 9.95238 17.8809 10.1305C18.0487 10.3087 18.1429 10.5503 18.1429 10.8023V18.8771C18.1429 19.2551 18.0015 19.6175 17.7498 19.8848C17.4981 20.152 17.1568 20.3021 16.8008 20.3021H14.564V10.8023Z" stroke="white" stroke-width="1.5" stroke-linejoin="round"/>
<path d="M3.82666 5.10205H7.40563" stroke="white" stroke-width="1.5" stroke-linecap="round" stroke-linejoin="round"/>
<path d="M3.82666 8.42676H9.19512" stroke="white" stroke-width="1.5" stroke-linecap="round" stroke-linejoin="round"/>
<path d="M1.14307 2.72698C1.14307 2.34905 1.28447 1.9866 1.53616 1.71937C1.78786 1.45213 2.12923 1.302 2.48518 1.302H13.2221C13.578 1.302 13.9194 1.45213 14.1711 1.71937C14.4228 1.9866 14.5642 2.34905 14.5642 2.72698V20.3017H2.48518C2.12923 20.3017 1.78786 20.1515 1.53616 19.8843C1.28447 19.6171 1.14307 19.2546 1.14307 18.8767V2.72698Z" stroke="white" stroke-width="1.5" stroke-linejoin="round"/>
<path d="M14.564 10.8023C14.564 10.5503 14.6582 10.3087 14.826 10.1305C14.9938 9.95238 15.2214 9.85229 15.4587 9.85229H17.2482C17.4855 9.85229 17.7131 9.95238 17.8809 10.1305C18.0487 10.3087 18.1429 10.5503 18.1429 10.8023V18.8771C18.1429 19.2551 18.0015 19.6175 17.7498 19.8848C17.4981 20.152 17.1568 20.3021 16.8008 20.3021H14.564V10.8023Z" stroke="white" stroke-width="1.5" stroke-linejoin="round"/>
<path d="M3.82666 5.10205H7.40563" stroke="white" stroke-width="1.5" stroke-linecap="round" stroke-linejoin="round"/>
<path d="M3.82666 8.42676H9.19512" stroke="white" stroke-width="1.5" stroke-linecap="round" stroke-linejoin="round"/>
</svg>
