<svg width="121" height="121" viewBox="0 0 121 121" fill="none" xmlns="http://www.w3.org/2000/svg">
<g filter="url(#filter0_d_1379_1269)">
<circle cx="60.5447" cy="60.384" r="40.3171" stroke="white" stroke-width="5" shape-rendering="crispEdges"/>
</g>
<path fill-rule="evenodd" clip-rule="evenodd" d="M60.5449 100.654C60.5449 102.035 59.4232 103.161 58.0447 103.082C35.5611 101.788 17.7278 83.1447 17.7278 60.3367C17.7278 37.5287 35.5611 18.8859 58.0447 17.5914C59.4232 17.512 60.5449 18.6389 60.5449 20.0196V20.0196C60.5449 21.4003 59.4222 22.511 58.0444 22.6009C38.3243 23.8882 22.7278 40.2911 22.7278 60.3367C22.7278 80.3824 38.3243 96.7852 58.0444 98.0725C59.4222 98.1624 60.5449 99.2731 60.5449 100.654V100.654Z" fill="#FBCB51"/>
<path d="M40.3535 68.3489V65.1329H32.9855V62.8769L40.8815 51.4289H43.4255V62.5889H45.8015V65.1329H43.4255V68.3489H40.3535ZM40.3535 62.5889V56.1329L35.9375 62.5889H40.3535ZM48.4322 68.3489L56.0642 53.9969H47.6882V51.4289H59.4722V53.7329L51.8162 68.3489H48.4322ZM68.1508 69.0209L66.1828 67.8689L76.0708 50.7569L78.0148 51.9089L68.1508 69.0209ZM66.0868 61.5329C64.7428 61.5329 63.6948 61.0689 62.9428 60.1409C62.1908 59.2129 61.8148 57.9489 61.8148 56.3489C61.8148 54.7489 62.1908 53.4929 62.9428 52.5809C63.6948 51.6529 64.7428 51.1889 66.0868 51.1889C67.4308 51.1889 68.4788 51.6529 69.2308 52.5809C69.9828 53.4929 70.3588 54.7489 70.3588 56.3489C70.3588 57.9489 69.9828 59.2129 69.2308 60.1409C68.4788 61.0689 67.4308 61.5329 66.0868 61.5329ZM66.0868 59.5169C66.6628 59.5169 67.1108 59.2609 67.4308 58.7489C67.7508 58.2209 67.9108 57.4209 67.9108 56.3489C67.9108 55.2769 67.7508 54.4849 67.4308 53.9729C67.1108 53.4609 66.6628 53.2049 66.0868 53.2049C65.5108 53.2049 65.0628 53.4609 64.7428 53.9729C64.4228 54.4689 64.2628 55.2609 64.2628 56.3489C64.2628 57.4369 64.4228 58.2369 64.7428 58.7489C65.0628 59.2609 65.5108 59.5169 66.0868 59.5169ZM78.1348 68.5889C76.7908 68.5889 75.7428 68.1249 74.9908 67.1969C74.2388 66.2689 73.8628 65.0049 73.8628 63.4049C73.8628 61.8049 74.2388 60.5489 74.9908 59.6369C75.7428 58.7089 76.7908 58.2449 78.1348 58.2449C79.4788 58.2449 80.5268 58.7089 81.2788 59.6369C82.0308 60.5489 82.4068 61.8049 82.4068 63.4049C82.4068 65.0049 82.0308 66.2689 81.2788 67.1969C80.5268 68.1249 79.4788 68.5889 78.1348 68.5889ZM78.1348 66.5729C78.7108 66.5729 79.1588 66.3169 79.4788 65.8049C79.7988 65.2769 79.9588 64.4769 79.9588 63.4049C79.9588 62.3329 79.7988 61.5409 79.4788 61.0289C79.1588 60.5169 78.7108 60.2609 78.1348 60.2609C77.5588 60.2609 77.1108 60.5169 76.7908 61.0289C76.4708 61.5249 76.3108 62.3169 76.3108 63.4049C76.3108 64.4929 76.4708 65.2929 76.7908 65.8049C77.1108 66.3169 77.5588 66.5729 78.1348 66.5729Z" fill="white"/>
<defs>
<filter id="filter0_d_1379_1269" x="0.727539" y="0.566895" width="119.634" height="119.634" filterUnits="userSpaceOnUse" color-interpolation-filters="sRGB">
<feFlood flood-opacity="0" result="BackgroundImageFix"/>
<feColorMatrix in="SourceAlpha" type="matrix" values="0 0 0 0 0 0 0 0 0 0 0 0 0 0 0 0 0 0 127 0" result="hardAlpha"/>
<feOffset/>
<feGaussianBlur stdDeviation="8.5"/>
<feComposite in2="hardAlpha" operator="out"/>
<feColorMatrix type="matrix" values="0 0 0 0 0.975 0 0 0 0 0.609375 0 0 0 0 0.609375 0 0 0 0.52 0"/>
<feBlend mode="normal" in2="BackgroundImageFix" result="effect1_dropShadow_1379_1269"/>
<feBlend mode="normal" in="SourceGraphic" in2="effect1_dropShadow_1379_1269" result="shape"/>
</filter>
</defs>
</svg>
