<svg width="42" height="47" viewBox="0 0 42 47" fill="none" xmlns="http://www.w3.org/2000/svg">
<g filter="url(#filter0_d_1579_1655)">
<path fill-rule="evenodd" clip-rule="evenodd" d="M23 37.098C23 37.6502 22.5518 38.1007 22.0002 38.0721C11.9716 37.5521 4.0002 29.256 4.0002 19.098C4.0002 8.94 11.9716 0.643853 22.0002 0.123849C22.5518 0.0952503 23 0.545708 23 1.098C23 1.65028 22.5513 2.09493 21.9999 2.12693C13.0767 2.64468 6.0002 10.0449 6.0002 19.098C6.0002 28.151 13.0767 35.5513 21.9999 36.069C22.5513 36.101 23 36.5457 23 37.098Z" fill="#37B9C5"/>
<path d="M15.004 23V21.427H11.517V20.58L15.202 15.245H16.137V20.47H17.27V21.427H16.137V23H15.004ZM15.004 20.47V17.027L12.65 20.47H15.004ZM18.6957 23L22.2487 16.202H18.2777V15.245H23.5247V16.092L19.9497 23H18.6957ZM27.4474 23.286L26.6994 22.846L31.2424 14.959L31.9904 15.399L27.4474 23.286ZM26.6554 19.887C26.0541 19.887 25.5847 19.678 25.2474 19.26C24.9101 18.8347 24.7414 18.2517 24.7414 17.511C24.7414 16.7703 24.9101 16.191 25.2474 15.773C25.5921 15.355 26.0614 15.146 26.6554 15.146C27.2494 15.146 27.7151 15.355 28.0524 15.773C28.3971 16.191 28.5694 16.7703 28.5694 17.511C28.5694 18.2517 28.4007 18.8347 28.0634 19.26C27.7261 19.678 27.2567 19.887 26.6554 19.887ZM26.6554 19.106C26.9634 19.106 27.2017 18.974 27.3704 18.71C27.5464 18.446 27.6344 18.0463 27.6344 17.511C27.6344 16.9757 27.5464 16.576 27.3704 16.312C27.2017 16.048 26.9634 15.916 26.6554 15.916C26.3474 15.916 26.1054 16.048 25.9294 16.312C25.7607 16.576 25.6764 16.9757 25.6764 17.511C25.6764 18.0537 25.7607 18.457 25.9294 18.721C26.1054 18.9777 26.3474 19.106 26.6554 19.106ZM32.0344 23.099C31.4404 23.099 30.9747 22.89 30.6374 22.472C30.3001 22.054 30.1314 21.471 30.1314 20.723C30.1314 19.9897 30.3001 19.414 30.6374 18.996C30.9747 18.5707 31.4404 18.358 32.0344 18.358C32.6357 18.358 33.1051 18.5707 33.4424 18.996C33.7797 19.414 33.9484 19.9897 33.9484 20.723C33.9484 21.471 33.7797 22.054 33.4424 22.472C33.1051 22.89 32.6357 23.099 32.0344 23.099ZM32.0344 22.329C32.3424 22.329 32.5807 22.197 32.7494 21.933C32.9254 21.669 33.0134 21.2657 33.0134 20.723C33.0134 20.195 32.9254 19.799 32.7494 19.535C32.5807 19.271 32.3424 19.139 32.0344 19.139C31.7264 19.139 31.4844 19.271 31.3084 19.535C31.1397 19.7917 31.0554 20.1877 31.0554 20.723C31.0554 21.2657 31.1397 21.669 31.3084 21.933C31.4844 22.197 31.7264 22.329 32.0344 22.329Z" fill="black"/>
</g>
<defs>
<filter id="filter0_d_1579_1655" x="0.000244141" y="0.122559" width="37.9482" height="45.9508" filterUnits="userSpaceOnUse" color-interpolation-filters="sRGB">
<feFlood flood-opacity="0" result="BackgroundImageFix"/>
<feColorMatrix in="SourceAlpha" type="matrix" values="0 0 0 0 0 0 0 0 0 0 0 0 0 0 0 0 0 0 127 0" result="hardAlpha"/>
<feOffset dy="4"/>
<feGaussianBlur stdDeviation="2"/>
<feComposite in2="hardAlpha" operator="out"/>
<feColorMatrix type="matrix" values="0 0 0 0 0 0 0 0 0 0 0 0 0 0 0 0 0 0 0.25 0"/>
<feBlend mode="normal" in2="BackgroundImageFix" result="effect1_dropShadow_1579_1655"/>
<feBlend mode="normal" in="SourceGraphic" in2="effect1_dropShadow_1579_1655" result="shape"/>
</filter>
</defs>
</svg>
