<svg width="16" height="17" viewBox="0 0 16 17" fill="none" xmlns="http://www.w3.org/2000/svg">
<path d="M1 2.28743C1 1.99325 1.11686 1.71112 1.32488 1.5031C1.5329 1.29509 1.81503 1.17822 2.10921 1.17822H10.9829C11.2771 1.17822 11.5592 1.29509 11.7672 1.5031C11.9752 1.71112 12.0921 1.99325 12.0921 2.28743V15.9677H2.10921C1.81503 15.9677 1.5329 15.8508 1.32488 15.6428C1.11686 15.4348 1 15.1527 1 14.8585V2.28743Z" stroke="#ADB3BC" stroke-linejoin="round"/>
<path d="M12.0916 8.57321C12.0916 8.37709 12.1695 8.18901 12.3081 8.05033C12.4468 7.91165 12.6349 7.83374 12.831 7.83374H14.31C14.5061 7.83374 14.6942 7.91165 14.8329 8.05033C14.9715 8.18901 15.0494 8.37709 15.0494 8.57321V14.8587C15.0494 15.1529 14.9326 15.4351 14.7246 15.6431C14.5166 15.8511 14.2344 15.968 13.9402 15.968H12.0916V8.57321Z" stroke="#ADB3BC" stroke-linejoin="round"/>
<path d="M3.21802 4.13623H6.17591" stroke="#ADB3BC" stroke-linecap="round" stroke-linejoin="round"/>
<path d="M3.21802 6.72412H7.65486" stroke="#ADB3BC" stroke-linecap="round" stroke-linejoin="round"/>
</svg>
