<svg width="19" height="18" viewBox="0 0 19 18" fill="none" xmlns="http://www.w3.org/2000/svg">
<path fill-rule="evenodd" clip-rule="evenodd" d="M7.79257 2.25C4.73586 2.25 2.2579 4.71928 2.2579 7.7653C2.2579 10.8113 4.73586 13.2806 7.79257 13.2806C9.4638 13.2806 10.962 12.5425 11.9768 11.3755C11.9783 11.3738 11.9798 11.3721 11.9813 11.3704C12.8199 10.4037 13.3272 9.14352 13.3272 7.7653C13.3272 4.71928 10.8493 2.25 7.79257 2.25ZM14.3383 11.9804C15.1271 10.7665 15.5851 9.31919 15.5851 7.7653C15.5851 3.47664 12.0963 0 7.79257 0C3.48885 0 0 3.47664 0 7.7653C0 12.054 3.48885 15.5306 7.79257 15.5306C9.72221 15.5306 11.488 14.8317 12.849 13.674L17.0936 17.6908C17.5458 18.1186 18.2603 18.1002 18.6897 17.6497C19.119 17.1991 19.1006 16.4871 18.6485 16.0592L14.3383 11.9804Z" fill="#FFFAF3"/>
</svg>
