<svg width="17" height="17" viewBox="0 0 17 17" fill="none" xmlns="http://www.w3.org/2000/svg">
<path fill-rule="evenodd" clip-rule="evenodd" d="M7.06997 2.65686C4.3624 2.65686 2.16748 4.85178 2.16748 7.55935C2.16748 10.2669 4.3624 12.4618 7.06997 12.4618C8.55031 12.4618 9.8774 11.8057 10.7763 10.7684L10.7802 10.7639C11.5231 9.90457 11.9725 8.78444 11.9725 7.55935C11.9725 4.85178 9.77754 2.65686 7.06997 2.65686ZM12.868 11.3061C13.5668 10.2271 13.9725 8.94059 13.9725 7.55935C13.9725 3.74721 10.8821 0.65686 7.06997 0.65686C3.25783 0.65686 0.16748 3.74721 0.16748 7.55935C0.16748 11.3715 3.25783 14.4618 7.06997 14.4618C8.7792 14.4618 10.3433 13.8406 11.5489 12.8116L15.3087 16.382C15.7091 16.7623 16.3421 16.746 16.7224 16.3455C17.1027 15.945 17.0864 15.312 16.6859 14.9317L12.868 11.3061Z" fill="#FFC618"/>
</svg>
