<svg width="21" height="20" viewBox="0 0 21 20" fill="none" xmlns="http://www.w3.org/2000/svg">
<path d="M12.5368 1.00037C13.9932 1.00037 15.4169 1.43223 16.6278 2.24135C17.8387 3.05048 18.7825 4.20051 19.3399 5.54603C19.8972 6.89155 20.043 8.37212 19.7589 9.80052C19.4748 11.2289 18.7735 12.541 17.7436 13.5708C16.7138 14.6006 15.4018 15.3019 13.9734 15.5861C12.545 15.8702 11.0644 15.7244 9.71887 15.167C8.37335 14.6097 7.22332 13.6659 6.4142 12.4549C5.60508 11.244 5.17321 9.82034 5.17321 8.36396C5.17333 6.41105 5.94918 4.53816 7.33009 3.15725C8.71101 1.77634 10.5839 1.00049 12.5368 1.00037V1.00037Z" stroke="#ADB3BC" stroke-width="2" stroke-miterlimit="10"/>
<path d="M7.04297 13.8571L1.90032 18.9997" stroke="#ADB3BC" stroke-width="2" stroke-miterlimit="10" stroke-linecap="round"/>
</svg>
