<svg width="203" height="187" viewBox="0 0 203 187" fill="none" xmlns="http://www.w3.org/2000/svg">
<g filter="url(#filter0_d_1361_1268)">
<rect x="10.7041" y="16.7634" width="175.652" height="153.315" rx="9" fill="#37B9C5"/>
</g>
<path d="M54.3115 49.6401V41.2681H50.9235V39.7701H59.4915V41.2681H56.1035V49.6401H54.3115ZM62.4871 49.7801C61.7777 49.7801 61.1617 49.6355 60.6391 49.3461C60.1164 49.0568 59.7104 48.6461 59.4211 48.1141C59.1317 47.5728 58.9871 46.9381 58.9871 46.2101C58.9871 45.4821 59.1317 44.8521 59.4211 44.3201C59.7104 43.7881 60.1164 43.3775 60.6391 43.0881C61.1617 42.7988 61.7777 42.6541 62.4871 42.6541C63.1964 42.6541 63.8124 42.7988 64.3351 43.0881C64.8577 43.3775 65.2637 43.7881 65.5531 44.3201C65.8424 44.8521 65.9871 45.4821 65.9871 46.2101C65.9871 46.9381 65.8424 47.5728 65.5531 48.1141C65.2637 48.6461 64.8577 49.0568 64.3351 49.3461C63.8124 49.6355 63.1964 49.7801 62.4871 49.7801ZM62.4871 48.4501C63.0097 48.4501 63.4297 48.2635 63.7471 47.8901C64.0644 47.5075 64.2231 46.9475 64.2231 46.2101C64.2231 45.4635 64.0644 44.9081 63.7471 44.5441C63.4297 44.1708 63.0097 43.9841 62.4871 43.9841C61.9644 43.9841 61.5444 44.1708 61.2271 44.5441C60.9097 44.9081 60.7511 45.4635 60.7511 46.2101C60.7511 46.9475 60.9097 47.5075 61.2271 47.8901C61.5444 48.2635 61.9644 48.4501 62.4871 48.4501ZM70.4991 49.7801C68.6885 49.7801 67.7831 48.8841 67.7831 47.0921V44.1101H66.4671V42.7941H67.7831V40.7501H69.5331V42.7941H71.6051V44.1101H69.5331V46.9941C69.5331 47.4421 69.6311 47.7781 69.8271 48.0021C70.0231 48.2261 70.3405 48.3381 70.7791 48.3381C70.9098 48.3381 71.0451 48.3241 71.1851 48.2961C71.3251 48.2588 71.4698 48.2215 71.6191 48.1841L71.8851 49.4721C71.7171 49.5655 71.5025 49.6401 71.2411 49.6961C70.9891 49.7521 70.7418 49.7801 70.4991 49.7801ZM74.9902 49.7801C74.4955 49.7801 74.0522 49.6868 73.6602 49.5001C73.2775 49.3041 72.9742 49.0428 72.7502 48.7161C72.5355 48.3895 72.4282 48.0208 72.4282 47.6101C72.4282 47.1061 72.5588 46.7095 72.8202 46.4201C73.0815 46.1215 73.5062 45.9068 74.0942 45.7761C74.6822 45.6455 75.4708 45.5801 76.4602 45.5801H76.9502V45.2861C76.9502 44.8195 76.8475 44.4835 76.6422 44.2781C76.4368 44.0728 76.0915 43.9701 75.6062 43.9701C75.2235 43.9701 74.8315 44.0308 74.4302 44.1521C74.0288 44.2641 73.6228 44.4415 73.2122 44.6841L72.7082 43.4941C72.9508 43.3261 73.2355 43.1815 73.5622 43.0601C73.8982 42.9295 74.2482 42.8315 74.6122 42.7661C74.9855 42.6915 75.3355 42.6541 75.6622 42.6541C76.6608 42.6541 77.4028 42.8875 77.8882 43.3541C78.3735 43.8115 78.6162 44.5255 78.6162 45.4961V49.6401H76.9782V48.5481C76.8195 48.9308 76.5675 49.2341 76.2222 49.4581C75.8768 49.6728 75.4662 49.7801 74.9902 49.7801ZM75.3542 48.5761C75.8115 48.5761 76.1895 48.4175 76.4882 48.1001C76.7962 47.7828 76.9502 47.3815 76.9502 46.8961V46.5881H76.4742C75.5968 46.5881 74.9855 46.6581 74.6402 46.7981C74.3042 46.9288 74.1362 47.1715 74.1362 47.5261C74.1362 47.8341 74.2435 48.0861 74.4582 48.2821C74.6728 48.4781 74.9715 48.5761 75.3542 48.5761ZM82.7724 49.7801C81.9604 49.7801 81.3584 49.5608 80.9664 49.1221C80.5838 48.6741 80.3924 48.0208 80.3924 47.1621V39.7701H82.1424V47.0781C82.1424 47.9181 82.4971 48.3381 83.2064 48.3381C83.3091 48.3381 83.4118 48.3335 83.5144 48.3241C83.6171 48.3148 83.7151 48.2961 83.8084 48.2681L83.7804 49.6541C83.4444 49.7381 83.1084 49.7801 82.7724 49.7801ZM88.8326 49.6401V39.7701H90.3306L93.8306 46.2241L97.3166 39.7701H98.7866V49.6401H97.1626V42.9901L94.3346 48.1421H93.2846L90.4566 43.0181V49.6401H88.8326ZM103.045 49.7801C102.55 49.7801 102.107 49.6868 101.715 49.5001C101.332 49.3041 101.029 49.0428 100.805 48.7161C100.59 48.3895 100.483 48.0208 100.483 47.6101C100.483 47.1061 100.614 46.7095 100.875 46.4201C101.136 46.1215 101.561 45.9068 102.149 45.7761C102.737 45.6455 103.526 45.5801 104.515 45.5801H105.005V45.2861C105.005 44.8195 104.902 44.4835 104.697 44.2781C104.492 44.0728 104.146 43.9701 103.661 43.9701C103.278 43.9701 102.886 44.0308 102.485 44.1521C102.084 44.2641 101.678 44.4415 101.267 44.6841L100.763 43.4941C101.006 43.3261 101.29 43.1815 101.617 43.0601C101.953 42.9295 102.303 42.8315 102.667 42.7661C103.04 42.6915 103.39 42.6541 103.717 42.6541C104.716 42.6541 105.458 42.8875 105.943 43.3541C106.428 43.8115 106.671 44.5255 106.671 45.4961V49.6401H105.033V48.5481C104.874 48.9308 104.622 49.2341 104.277 49.4581C103.932 49.6728 103.521 49.7801 103.045 49.7801ZM103.409 48.5761C103.866 48.5761 104.244 48.4175 104.543 48.1001C104.851 47.7828 105.005 47.3815 105.005 46.8961V46.5881H104.529C103.652 46.5881 103.04 46.6581 102.695 46.7981C102.359 46.9288 102.191 47.1715 102.191 47.5261C102.191 47.8341 102.298 48.0861 102.513 48.2821C102.728 48.4781 103.026 48.5761 103.409 48.5761ZM111.583 49.7801C109.772 49.7801 108.867 48.8841 108.867 47.0921V44.1101H107.551V42.7941H108.867V40.7501H110.617V42.7941H112.689V44.1101H110.617V46.9941C110.617 47.4421 110.715 47.7781 110.911 48.0021C111.107 48.2261 111.424 48.3381 111.863 48.3381C111.994 48.3381 112.129 48.3241 112.269 48.2961C112.409 48.2588 112.554 48.2215 112.703 48.1841L112.969 49.4721C112.801 49.5655 112.586 49.6401 112.325 49.6961C112.073 49.7521 111.826 49.7801 111.583 49.7801ZM117.126 49.7801C116.351 49.7801 115.684 49.6355 115.124 49.3461C114.564 49.0568 114.13 48.6461 113.822 48.1141C113.523 47.5821 113.374 46.9521 113.374 46.2241C113.374 45.5148 113.518 44.8941 113.808 44.3621C114.106 43.8301 114.512 43.4148 115.026 43.1161C115.548 42.8081 116.141 42.6541 116.804 42.6541C117.774 42.6541 118.54 42.9621 119.1 43.5781C119.669 44.1941 119.954 45.0341 119.954 46.0981V46.6161H115.054C115.184 47.8388 115.884 48.4501 117.154 48.4501C117.536 48.4501 117.919 48.3941 118.302 48.2821C118.684 48.1608 119.034 47.9741 119.352 47.7221L119.842 48.8981C119.515 49.1688 119.104 49.3835 118.61 49.5421C118.115 49.7008 117.62 49.7801 117.126 49.7801ZM116.874 43.8441C116.36 43.8441 115.945 44.0028 115.628 44.3201C115.31 44.6375 115.119 45.0668 115.054 45.6081H118.498C118.46 45.0388 118.302 44.6048 118.022 44.3061C117.751 43.9981 117.368 43.8441 116.874 43.8441ZM121.34 49.6401V42.7941H123.048V43.9981C123.384 43.1861 124.102 42.7381 125.204 42.6541L125.736 42.6121L125.848 44.0961L124.84 44.1941C123.692 44.3061 123.118 44.8941 123.118 45.9581V49.6401H121.34ZM126.71 41.3241V39.6161H128.67V41.3241H126.71ZM126.822 49.6401V42.7941H128.572V49.6401H126.822ZM132.644 49.7801C132.15 49.7801 131.706 49.6868 131.314 49.5001C130.932 49.3041 130.628 49.0428 130.404 48.7161C130.19 48.3895 130.082 48.0208 130.082 47.6101C130.082 47.1061 130.213 46.7095 130.474 46.4201C130.736 46.1215 131.16 45.9068 131.748 45.7761C132.336 45.6455 133.125 45.5801 134.114 45.5801H134.604V45.2861C134.604 44.8195 134.502 44.4835 134.296 44.2781C134.091 44.0728 133.746 43.9701 133.26 43.9701C132.878 43.9701 132.486 44.0308 132.084 44.1521C131.683 44.2641 131.277 44.4415 130.866 44.6841L130.362 43.4941C130.605 43.3261 130.89 43.1815 131.216 43.0601C131.552 42.9295 131.902 42.8315 132.266 42.7661C132.64 42.6915 132.99 42.6541 133.316 42.6541C134.315 42.6541 135.057 42.8875 135.542 43.3541C136.028 43.8115 136.27 44.5255 136.27 45.4961V49.6401H134.632V48.5481C134.474 48.9308 134.222 49.2341 133.876 49.4581C133.531 49.6728 133.12 49.7801 132.644 49.7801ZM133.008 48.5761C133.466 48.5761 133.844 48.4175 134.142 48.1001C134.45 47.7828 134.604 47.3815 134.604 46.8961V46.5881H134.128C133.251 46.5881 132.64 46.6581 132.294 46.7981C131.958 46.9288 131.79 47.1715 131.79 47.5261C131.79 47.8341 131.898 48.0861 132.112 48.2821C132.327 48.4781 132.626 48.5761 133.008 48.5761ZM140.427 49.7801C139.615 49.7801 139.013 49.5608 138.621 49.1221C138.238 48.6741 138.047 48.0208 138.047 47.1621V39.7701H139.797V47.0781C139.797 47.9181 140.151 48.3381 140.861 48.3381C140.963 48.3381 141.066 48.3335 141.169 48.3241C141.271 48.3148 141.369 48.2961 141.463 48.2681L141.435 49.6541C141.099 49.7381 140.763 49.7801 140.427 49.7801Z" fill="white"/>
<path d="M54.3115 123.201V114.829H50.9235V113.331H59.4915V114.829H56.1035V123.201H54.3115ZM62.4871 123.341C61.7777 123.341 61.1617 123.197 60.6391 122.907C60.1164 122.618 59.7104 122.207 59.4211 121.675C59.1317 121.134 58.9871 120.499 58.9871 119.771C58.9871 119.043 59.1317 118.413 59.4211 117.881C59.7104 117.349 60.1164 116.939 60.6391 116.649C61.1617 116.36 61.7777 116.215 62.4871 116.215C63.1964 116.215 63.8124 116.36 64.3351 116.649C64.8577 116.939 65.2637 117.349 65.5531 117.881C65.8424 118.413 65.9871 119.043 65.9871 119.771C65.9871 120.499 65.8424 121.134 65.5531 121.675C65.2637 122.207 64.8577 122.618 64.3351 122.907C63.8124 123.197 63.1964 123.341 62.4871 123.341ZM62.4871 122.011C63.0097 122.011 63.4297 121.825 63.7471 121.451C64.0644 121.069 64.2231 120.509 64.2231 119.771C64.2231 119.025 64.0644 118.469 63.7471 118.105C63.4297 117.732 63.0097 117.545 62.4871 117.545C61.9644 117.545 61.5444 117.732 61.2271 118.105C60.9097 118.469 60.7511 119.025 60.7511 119.771C60.7511 120.509 60.9097 121.069 61.2271 121.451C61.5444 121.825 61.9644 122.011 62.4871 122.011ZM70.4991 123.341C68.6885 123.341 67.7831 122.445 67.7831 120.653V117.671H66.4671V116.355H67.7831V114.311H69.5331V116.355H71.6051V117.671H69.5331V120.555C69.5331 121.003 69.6311 121.339 69.8271 121.563C70.0231 121.787 70.3405 121.899 70.7791 121.899C70.9098 121.899 71.0451 121.885 71.1851 121.857C71.3251 121.82 71.4698 121.783 71.6191 121.745L71.8851 123.033C71.7171 123.127 71.5025 123.201 71.2411 123.257C70.9891 123.313 70.7418 123.341 70.4991 123.341ZM74.9902 123.341C74.4955 123.341 74.0522 123.248 73.6602 123.061C73.2775 122.865 72.9742 122.604 72.7502 122.277C72.5355 121.951 72.4282 121.582 72.4282 121.171C72.4282 120.667 72.5588 120.271 72.8202 119.981C73.0815 119.683 73.5062 119.468 74.0942 119.337C74.6822 119.207 75.4708 119.141 76.4602 119.141H76.9502V118.847C76.9502 118.381 76.8475 118.045 76.6422 117.839C76.4368 117.634 76.0915 117.531 75.6062 117.531C75.2235 117.531 74.8315 117.592 74.4302 117.713C74.0288 117.825 73.6228 118.003 73.2122 118.245L72.7082 117.055C72.9508 116.887 73.2355 116.743 73.5622 116.621C73.8982 116.491 74.2482 116.393 74.6122 116.327C74.9855 116.253 75.3355 116.215 75.6622 116.215C76.6608 116.215 77.4028 116.449 77.8882 116.915C78.3735 117.373 78.6162 118.087 78.6162 119.057V123.201H76.9782V122.109C76.8195 122.492 76.5675 122.795 76.2222 123.019C75.8768 123.234 75.4662 123.341 74.9902 123.341ZM75.3542 122.137C75.8115 122.137 76.1895 121.979 76.4882 121.661C76.7962 121.344 76.9502 120.943 76.9502 120.457V120.149H76.4742C75.5968 120.149 74.9855 120.219 74.6402 120.359C74.3042 120.49 74.1362 120.733 74.1362 121.087C74.1362 121.395 74.2435 121.647 74.4582 121.843C74.6728 122.039 74.9715 122.137 75.3542 122.137ZM82.7724 123.341C81.9604 123.341 81.3584 123.122 80.9664 122.683C80.5838 122.235 80.3924 121.582 80.3924 120.723V113.331H82.1424V120.639C82.1424 121.479 82.4971 121.899 83.2064 121.899C83.3091 121.899 83.4118 121.895 83.5144 121.885C83.6171 121.876 83.7151 121.857 83.8084 121.829L83.7804 123.215C83.4444 123.299 83.1084 123.341 82.7724 123.341ZM93.2286 123.341C92.2766 123.341 91.4412 123.131 90.7226 122.711C90.0132 122.291 89.4626 121.703 89.0706 120.947C88.6786 120.182 88.4826 119.286 88.4826 118.259C88.4826 117.223 88.6786 116.327 89.0706 115.571C89.4626 114.815 90.0132 114.232 90.7226 113.821C91.4319 113.401 92.2672 113.191 93.2286 113.191C94.1899 113.191 95.0252 113.401 95.7346 113.821C96.4439 114.232 96.9946 114.815 97.3866 115.571C97.7786 116.327 97.9746 117.219 97.9746 118.245C97.9746 119.281 97.7786 120.182 97.3866 120.947C96.9946 121.703 96.4439 122.291 95.7346 122.711C95.0252 123.131 94.1899 123.341 93.2286 123.341ZM93.2286 121.801C94.1339 121.801 94.8386 121.489 95.3426 120.863C95.8466 120.238 96.0986 119.37 96.0986 118.259C96.0986 117.139 95.8466 116.271 95.3426 115.655C94.8479 115.039 94.1432 114.731 93.2286 114.731C92.3232 114.731 91.6186 115.039 91.1146 115.655C90.6106 116.271 90.3586 117.139 90.3586 118.259C90.3586 119.37 90.6106 120.238 91.1146 120.863C91.6186 121.489 92.3232 121.801 93.2286 121.801ZM99.6288 123.201V116.355H101.337V117.559C101.673 116.747 102.391 116.299 103.493 116.215L104.025 116.173L104.137 117.657L103.129 117.755C101.981 117.867 101.407 118.455 101.407 119.519V123.201H99.6288ZM107.634 123.341C107.036 123.341 106.509 123.197 106.052 122.907C105.604 122.618 105.254 122.207 105.002 121.675C104.75 121.134 104.624 120.499 104.624 119.771C104.624 119.034 104.75 118.404 105.002 117.881C105.254 117.349 105.604 116.939 106.052 116.649C106.509 116.36 107.036 116.215 107.634 116.215C108.119 116.215 108.558 116.323 108.95 116.537C109.342 116.752 109.636 117.037 109.832 117.391V113.331H111.582V123.201H109.874V122.067C109.687 122.459 109.393 122.772 108.992 123.005C108.59 123.229 108.138 123.341 107.634 123.341ZM108.124 122.011C108.646 122.011 109.066 121.825 109.384 121.451C109.701 121.069 109.86 120.509 109.86 119.771C109.86 119.025 109.701 118.469 109.384 118.105C109.066 117.732 108.646 117.545 108.124 117.545C107.601 117.545 107.181 117.732 106.864 118.105C106.546 118.469 106.388 119.025 106.388 119.771C106.388 120.509 106.546 121.069 106.864 121.451C107.181 121.825 107.601 122.011 108.124 122.011ZM116.77 123.341C115.996 123.341 115.328 123.197 114.768 122.907C114.208 122.618 113.774 122.207 113.466 121.675C113.168 121.143 113.018 120.513 113.018 119.785C113.018 119.076 113.163 118.455 113.452 117.923C113.751 117.391 114.157 116.976 114.67 116.677C115.193 116.369 115.786 116.215 116.448 116.215C117.419 116.215 118.184 116.523 118.744 117.139C119.314 117.755 119.598 118.595 119.598 119.659V120.177H114.698C114.829 121.4 115.529 122.011 116.798 122.011C117.181 122.011 117.564 121.955 117.946 121.843C118.329 121.722 118.679 121.535 118.996 121.283L119.486 122.459C119.16 122.73 118.749 122.945 118.254 123.103C117.76 123.262 117.265 123.341 116.77 123.341ZM116.518 117.405C116.005 117.405 115.59 117.564 115.272 117.881C114.955 118.199 114.764 118.628 114.698 119.169H118.142C118.105 118.6 117.946 118.166 117.666 117.867C117.396 117.559 117.013 117.405 116.518 117.405ZM120.984 123.201V116.355H122.692V117.559C123.028 116.747 123.747 116.299 124.848 116.215L125.38 116.173L125.492 117.657L124.484 117.755C123.336 117.867 122.762 118.455 122.762 119.519V123.201H120.984ZM128.904 123.341C128.326 123.341 127.784 123.271 127.28 123.131C126.776 122.991 126.356 122.791 126.02 122.529L126.468 121.381C126.814 121.615 127.201 121.797 127.63 121.927C128.06 122.049 128.489 122.109 128.918 122.109C129.366 122.109 129.698 122.035 129.912 121.885C130.136 121.727 130.248 121.521 130.248 121.269C130.248 120.877 129.959 120.625 129.38 120.513L127.98 120.247C126.795 120.023 126.202 119.407 126.202 118.399C126.202 117.951 126.324 117.564 126.566 117.237C126.818 116.911 127.164 116.659 127.602 116.481C128.041 116.304 128.545 116.215 129.114 116.215C129.6 116.215 130.066 116.285 130.514 116.425C130.962 116.556 131.345 116.757 131.662 117.027L131.186 118.175C130.916 117.951 130.589 117.774 130.206 117.643C129.833 117.513 129.474 117.447 129.128 117.447C128.671 117.447 128.33 117.527 128.106 117.685C127.892 117.844 127.784 118.054 127.784 118.315C127.784 118.726 128.05 118.978 128.582 119.071L129.982 119.337C130.589 119.449 131.046 119.655 131.354 119.953C131.672 120.252 131.83 120.653 131.83 121.157C131.83 121.839 131.564 122.375 131.032 122.767C130.5 123.15 129.791 123.341 128.904 123.341Z" fill="white"/>
<path d="M146.913 75.6401V74.2541L151.143 69.7181C151.731 69.0821 152.151 68.5061 152.403 67.9901C152.667 67.4741 152.799 66.9521 152.799 66.4241C152.799 65.0561 151.995 64.3721 150.387 64.3721C149.163 64.3721 148.065 64.8341 147.093 65.7581L146.427 64.3361C146.907 63.8681 147.519 63.4961 148.263 63.2201C149.007 62.9321 149.781 62.7881 150.585 62.7881C151.893 62.7881 152.895 63.0881 153.591 63.6881C154.299 64.2881 154.653 65.1461 154.653 66.2621C154.653 67.0181 154.467 67.7561 154.095 68.4761C153.735 69.1961 153.165 69.9641 152.385 70.7801L149.253 74.0741H155.157V75.6401H146.913ZM157.706 75.6401V74.2541L161.936 69.7181C162.524 69.0821 162.944 68.5061 163.196 67.9901C163.46 67.4741 163.592 66.9521 163.592 66.4241C163.592 65.0561 162.788 64.3721 161.18 64.3721C159.956 64.3721 158.858 64.8341 157.886 65.7581L157.22 64.3361C157.7 63.8681 158.312 63.4961 159.056 63.2201C159.8 62.9321 160.574 62.7881 161.378 62.7881C162.686 62.7881 163.688 63.0881 164.384 63.6881C165.092 64.2881 165.446 65.1461 165.446 66.2621C165.446 67.0181 165.26 67.7561 164.888 68.4761C164.528 69.1961 163.958 69.9641 163.178 70.7801L160.046 74.0741H165.95V75.6401H157.706ZM172.567 75.8021C171.751 75.8021 170.959 75.6761 170.191 75.4241C169.435 75.1601 168.805 74.7941 168.301 74.3261L168.931 72.8861C170.035 73.7741 171.235 74.2181 172.531 74.2181C173.359 74.2181 174.007 73.9961 174.475 73.5521C174.943 73.0961 175.177 72.5021 175.177 71.7701C175.177 71.0141 174.955 70.3961 174.511 69.9161C174.067 69.4361 173.449 69.1961 172.657 69.1961C171.541 69.1961 170.647 69.6581 169.975 70.5821H168.679V62.9501H176.239V64.5161H170.497V68.5301C171.169 67.9421 172.021 67.6481 173.053 67.6481C173.857 67.6481 174.553 67.8161 175.141 68.1521C175.729 68.4881 176.185 68.9621 176.509 69.5741C176.833 70.1741 176.995 70.8761 176.995 71.6801C176.995 72.4961 176.815 73.2161 176.455 73.8401C176.095 74.4521 175.585 74.9321 174.925 75.2801C174.265 75.6281 173.479 75.8021 172.567 75.8021Z" fill="white"/>
<path d="M147.489 146.201V144.635H150.369V135.671L148.119 137.075L147.363 135.689L150.909 133.511H152.223V144.635H154.923V146.201H147.489ZM162.728 146.201V143.627H157.022V142.241L163.052 133.511H164.582V142.061H166.436V143.627H164.582V146.201H162.728ZM162.728 142.061V136.427L158.876 142.061H162.728ZM172.567 146.363C171.751 146.363 170.959 146.237 170.191 145.985C169.435 145.721 168.805 145.355 168.301 144.887L168.931 143.447C170.035 144.335 171.235 144.779 172.531 144.779C173.359 144.779 174.007 144.557 174.475 144.113C174.943 143.657 175.177 143.063 175.177 142.331C175.177 141.575 174.955 140.957 174.511 140.477C174.067 139.997 173.449 139.757 172.657 139.757C171.541 139.757 170.647 140.219 169.975 141.143H168.679V133.511H176.239V135.077H170.497V139.091C171.169 138.503 172.021 138.209 173.053 138.209C173.857 138.209 174.553 138.377 175.141 138.713C175.729 139.049 176.185 139.523 176.509 140.135C176.833 140.735 176.995 141.437 176.995 142.241C176.995 143.057 176.815 143.777 176.455 144.401C176.095 145.013 175.585 145.493 174.925 145.841C174.265 146.189 173.479 146.363 172.567 146.363Z" fill="white"/>
<path d="M39.6758 38.8901L29.1758 33.6401L18.6758 38.8901V49.3901L29.1758 54.6401L39.6758 49.3901V38.8901Z" stroke="white" stroke-width="1.5" stroke-linejoin="round"/>
<path d="M34.4258 36.2651L23.9258 41.5151M18.6758 38.8901L29.1758 44.1401L18.6758 38.8901ZM29.1758 54.6401V44.1401V54.6401ZM39.6758 38.8901L29.1758 44.1401L39.6758 38.8901Z" stroke="white" stroke-width="1.5" stroke-linecap="round" stroke-linejoin="round"/>
<line x1="30.6982" y1="96.9795" x2="168.306" y2="96.9795" stroke="white" stroke-width="0.5"/>
<path d="M32.0954 111.313V109.636C32.0953 109.553 32.1194 109.472 32.165 109.403C32.2105 109.333 32.2756 109.277 32.3526 109.242C32.4296 109.207 32.5154 109.194 32.5997 109.205C32.6841 109.215 32.7637 109.249 32.829 109.302L36.5149 112.282C36.5856 112.339 36.6363 112.416 36.6603 112.502C36.6843 112.588 36.6803 112.679 36.6489 112.763C36.6175 112.847 36.5602 112.919 36.4849 112.971C36.4095 113.022 36.3197 113.049 36.2278 113.049H18.6758V111.313H32.0954ZM18.6758 123.465H36.5686V125.201H18.6758V123.465ZM18.6758 117.389H36.5686V119.125H18.6758V117.389Z" fill="white"/>
<defs>
<filter id="filter0_d_1361_1268" x="-5.2959" y="0.763428" width="207.651" height="185.314" filterUnits="userSpaceOnUse" color-interpolation-filters="sRGB">
<feFlood flood-opacity="0" result="BackgroundImageFix"/>
<feColorMatrix in="SourceAlpha" type="matrix" values="0 0 0 0 0 0 0 0 0 0 0 0 0 0 0 0 0 0 127 0" result="hardAlpha"/>
<feOffset/>
<feGaussianBlur stdDeviation="8"/>
<feComposite in2="hardAlpha" operator="out"/>
<feColorMatrix type="matrix" values="0 0 0 0 0 0 0 0 0 0 0 0 0 0 0 0 0 0 0.07 0"/>
<feBlend mode="normal" in2="BackgroundImageFix" result="effect1_dropShadow_1361_1268"/>
<feBlend mode="normal" in="SourceGraphic" in2="effect1_dropShadow_1361_1268" result="shape"/>
</filter>
</defs>
</svg>
