<svg width="19" height="17" viewBox="0 0 19 17" fill="none" xmlns="http://www.w3.org/2000/svg">
<path d="M14.0954 2.3129V0.635887C14.0953 0.553345 14.1194 0.472477 14.165 0.402767C14.2105 0.333058 14.2756 0.277399 14.3526 0.242319C14.4296 0.207239 14.5154 0.194192 14.5997 0.20471C14.6841 0.215228 14.7637 0.248873 14.829 0.3017L18.5149 3.2816C18.5856 3.33876 18.6363 3.41564 18.6603 3.5018C18.6843 3.58795 18.6803 3.67918 18.6489 3.76306C18.6175 3.84694 18.5602 3.91939 18.4849 3.97054C18.4095 4.0217 18.3197 4.04907 18.2278 4.04893H0.675781V2.3129H14.0954ZM0.675781 14.4651H18.5686V16.2012H0.675781V14.4651ZM0.675781 8.38902H18.5686V10.1251H0.675781V8.38902Z" fill="white"/>
</svg>
